<?xml version="1.0" encoding="utf-8"?>
<!-- Generator: Adobe Illustrator 19.2.0, SVG Export Plug-In . SVG Version: 6.00 Build 0)  -->
<svg version="1.1" id="Layer_1" xmlns="http://www.w3.org/2000/svg" xmlns:xlink="http://www.w3.org/1999/xlink" x="0px" y="0px"
	 viewBox="0 0 230.9 217.8" style="enable-background:new 0 0 230.9 217.8;" xml:space="preserve">
<style type="text/css">
	.st0{fill:none;stroke:#000000;stroke-miterlimit:10;}
</style>
<path class="st0" d="M177.5,206.1H61.3c-6.6,0-12-5.4-12-12V29c0-6.6,5.4-12,12-12h116.2c6.6,0,12,5.4,12,12v165.1
	C189.5,200.7,184.1,206.1,177.5,206.1z"/>
<path class="st0" d="M167,68.3H71.7c-6.6,0-12-5.4-12-12V35.4c0-6.6,5.4-12,12-12H167c6.6,0,12,5.4,12,12v20.9
	C179,62.9,173.6,68.3,167,68.3z"/>
<circle class="st0" cx="78.3" cy="91.6" r="17"/>
<circle class="st0" cx="118.3" cy="91.6" r="17"/>
<circle class="st0" cx="158.3" cy="91.6" r="17"/>
<circle class="st0" cx="78.3" cy="131.6" r="17"/>
<circle class="st0" cx="118.3" cy="131.6" r="17"/>
<circle class="st0" cx="158.3" cy="131.6" r="17"/>
<circle class="st0" cx="158.3" cy="171.6" r="17"/>
<path class="st0" d="M116.3,188.3h-40c-6.6,0-12-5.4-12-12v-5c0-6.6,5.4-12,12-12h40c6.6,0,12,5.4,12,12v5
	C128.3,182.9,122.9,188.3,116.3,188.3z"/>
</svg>
