<?xml version="1.0" encoding="utf-8"?>
<!-- Generator: Adobe Illustrator 19.2.0, SVG Export Plug-In . SVG Version: 6.00 Build 0)  -->
<svg version="1.1" id="Layer_1" xmlns="http://www.w3.org/2000/svg" xmlns:xlink="http://www.w3.org/1999/xlink" x="0px" y="0px"
	 viewBox="0 0 230.9 217.8" style="enable-background:new 0 0 230.9 217.8;" xml:space="preserve">
<style type="text/css">
	.st0{fill:none;stroke:#000000;stroke-miterlimit:10;}
</style>
<path class="st0" d="M176,155H54.7c-6.6,0-12-5.4-12-12V74c0-6.6,5.4-12,12-12H176c6.6,0,12,5.4,12,12v69
	C188,149.6,182.6,155,176,155z"/>
<circle class="st0" cx="80.9" cy="108.8" r="23.9"/>
<circle class="st0" cx="80.9" cy="108.5" r="19.1"/>
<rect x="140.7" y="70" class="st0" width="38" height="6"/>
<ellipse transform="matrix(0.7071 -0.7071 0.7071 0.7071 -53.2402 89.0513)" class="st0" cx="80.9" cy="108.8" rx="1.4" ry="1.4"/>
<rect x="39.5" y="73.2" class="st0" width="2.6" height="2.6"/>
<rect x="188" y="73.2" class="st0" width="2.6" height="2.6"/>
<circle class="st0" cx="55.2" cy="71.8" r="4"/>
</svg>
