<?xml version="1.0" encoding="utf-8"?>
<!-- Generator: Adobe Illustrator 19.2.0, SVG Export Plug-In . SVG Version: 6.00 Build 0)  -->
<svg version="1.1" id="Layer_1" xmlns="http://www.w3.org/2000/svg" xmlns:xlink="http://www.w3.org/1999/xlink" x="0px" y="0px"
	 viewBox="0 0 230.9 217.8" style="enable-background:new 0 0 230.9 217.8;" xml:space="preserve">
<style type="text/css">
	.st0{fill:none;stroke:#000000;stroke-miterlimit:10;}
</style>
<rect x="29.7" y="20.7" class="st0" width="180.7" height="180.7"/>
<path class="st0" d="M181.3,184.3H62c-6.6,0-12-5.4-12-12v-53.7c0-6.6,5.4-12,12-12h119.3c6.6,0,12,5.4,12,12v53.7
	C193.3,178.9,187.9,184.3,181.3,184.3z"/>
<line class="st0" x1="60" y1="121.3" x2="181.3" y2="121.3"/>
<line class="st0" x1="60" y1="132.3" x2="181.3" y2="132.3"/>
<line class="st0" x1="60" y1="142.3" x2="181.3" y2="142.3"/>
<line class="st0" x1="60" y1="152.3" x2="181.3" y2="152.3"/>
<line class="st0" x1="60" y1="162.3" x2="181.3" y2="162.3"/>
<line class="st0" x1="60" y1="172.3" x2="181.3" y2="172.3"/>
<line class="st0" x1="57" y1="20.7" x2="57" y2="68.7"/>
<line class="st0" x1="181.3" y1="68.7" x2="57" y2="68.7"/>
<line class="st0" x1="181.3" y1="68.7" x2="181.3" y2="20.7"/>
<rect x="148.4" y="26.9" class="st0" width="13.6" height="34.1"/>
</svg>
