<?xml version="1.0" encoding="utf-8"?>
<!-- Generator: Adobe Illustrator 19.2.0, SVG Export Plug-In . SVG Version: 6.00 Build 0)  -->
<svg version="1.1" id="Layer_1" xmlns="http://www.w3.org/2000/svg" xmlns:xlink="http://www.w3.org/1999/xlink" x="0px" y="0px"
	 viewBox="0 0 230.9 217.8" style="enable-background:new 0 0 230.9 217.8;" xml:space="preserve">
<style type="text/css">
	.st0{fill:none;stroke:#000000;stroke-miterlimit:10;}
</style>
<path class="st0" d="M195.7,173.3H27c-6.6,0-12-5.4-12-12v-54.7c0-3.3,1.4-6.3,3.5-8.5c2.8-2.8,6.8-3.3,8.5-3.5
	c6.9-0.7,40.1-0.9,85.5,0c45.7-0.6,79.1-0.4,83.2,0C201,95.2,204,98,204,98c0.1,0.1,0.1,0.1,0.1,0.1c2.2,2.2,3.5,5.2,3.5,8.5v54.7
	C207.7,167.9,202.3,173.3,195.7,173.3z"/>
<rect x="59" y="153.2" class="st0" width="107.5" height="8.2"/>
<rect x="26.5" y="105.2" class="st0" width="8.5" height="8.5"/>
<rect x="40.5" y="105.2" class="st0" width="8.5" height="8.5"/>
<rect x="54.5" y="105.2" class="st0" width="8.5" height="8.5"/>
<rect x="67.5" y="105.2" class="st0" width="8.5" height="8.5"/>
<rect x="80.5" y="105.2" class="st0" width="8.5" height="8.5"/>
<rect x="93.5" y="105.2" class="st0" width="8.5" height="8.5"/>
<rect x="107.5" y="105.2" class="st0" width="8.5" height="8.5"/>
<rect x="134.5" y="105.2" class="st0" width="8.5" height="8.5"/>
<rect x="121.5" y="105.2" class="st0" width="8.5" height="8.5"/>
<rect x="147.5" y="105.2" class="st0" width="8.5" height="8.5"/>
<rect x="160.5" y="105.2" class="st0" width="8.5" height="8.5"/>
<rect x="174.5" y="105.2" class="st0" width="8.5" height="8.5"/>
<rect x="188.5" y="105.2" class="st0" width="8.5" height="8.5"/>
<rect x="26.5" y="121.2" class="st0" width="8.5" height="8.5"/>
<rect x="40.5" y="121.2" class="st0" width="8.5" height="8.5"/>
<rect x="54.5" y="121.2" class="st0" width="8.5" height="8.5"/>
<rect x="67.5" y="121.2" class="st0" width="8.5" height="8.5"/>
<rect x="80.5" y="121.2" class="st0" width="8.5" height="8.5"/>
<rect x="93.5" y="121.2" class="st0" width="8.5" height="8.5"/>
<rect x="107.5" y="121.2" class="st0" width="8.5" height="8.5"/>
<rect x="134.5" y="121.2" class="st0" width="8.5" height="8.5"/>
<rect x="121.5" y="121.2" class="st0" width="8.5" height="8.5"/>
<rect x="147.5" y="121.2" class="st0" width="8.5" height="8.5"/>
<rect x="160.5" y="121.2" class="st0" width="8.5" height="8.5"/>
<rect x="174.5" y="121.2" class="st0" width="8.5" height="8.5"/>
<rect x="188.5" y="121.2" class="st0" width="8.5" height="8.5"/>
<rect x="26.5" y="137.2" class="st0" width="8.5" height="8.5"/>
<rect x="40.5" y="137.2" class="st0" width="8.5" height="8.5"/>
<rect x="54.5" y="137.2" class="st0" width="8.5" height="8.5"/>
<rect x="67.5" y="137.2" class="st0" width="8.5" height="8.5"/>
<rect x="80.5" y="137.2" class="st0" width="8.5" height="8.5"/>
<rect x="93.5" y="137.2" class="st0" width="8.5" height="8.5"/>
<rect x="107.5" y="137.2" class="st0" width="8.5" height="8.5"/>
<rect x="134.5" y="137.2" class="st0" width="8.5" height="8.5"/>
<rect x="121.5" y="137.2" class="st0" width="8.5" height="8.5"/>
<rect x="147.5" y="137.2" class="st0" width="8.5" height="8.5"/>
<rect x="160.5" y="137.2" class="st0" width="8.5" height="8.5"/>
<rect x="174.5" y="137.2" class="st0" width="8.5" height="8.5"/>
<rect x="188.5" y="137.2" class="st0" width="8.5" height="8.5"/>
<path class="st0" d="M128.5,68.8"/>
<path class="st0" d="M115,94c9.2-4.2,19.5-10.4,19.3-17.7c-0.1-8.7-14.8-12-15.7-21.3c-0.5-5,2.9-12.3,20.3-22.3"/>
</svg>
