<svg version="1.1" id="el_Bk4chnU3Q" xmlns="http://www.w3.org/2000/svg" xmlns:xlink="http://www.w3.org/1999/xlink" x="0px" y="0px" viewBox="0 0 230 217" style="enable-background:new 0 0 230.9 217.8;" xml:space="preserve"><style>@-webkit-keyframes el_r1EVq3hI27_Animation{0%{opacity: 1;}33.33%{opacity: 0;}100%{opacity: 0;}}@keyframes el_r1EVq3hI27_Animation{0%{opacity: 1;}33.33%{opacity: 0;}100%{opacity: 0;}}@-webkit-keyframes el_BkXVc23827_Animation{0%{opacity: 1;}33.33%{opacity: 0;}100%{opacity: 0;}}@keyframes el_BkXVc23827_Animation{0%{opacity: 1;}33.33%{opacity: 0;}100%{opacity: 0;}}@-webkit-keyframes el_H1fN5h2U3m_Animation{0%{opacity: 1;}33.33%{opacity: 0;}100%{opacity: 0;}}@keyframes el_H1fN5h2U3m_Animation{0%{opacity: 1;}33.33%{opacity: 0;}100%{opacity: 0;}}#el_Bk4chnU3Q *{-webkit-animation-duration: 3s;animation-duration: 3s;-webkit-animation-iteration-count: infinite;animation-iteration-count: infinite;-webkit-animation-play-state: running;animation-play-state: running;-webkit-animation-timing-function: cubic-bezier(0, 0, 1, 1);animation-timing-function: cubic-bezier(0, 0, 1, 1);}#el_SklE93nUn7{fill: none;stroke: #000000;stroke-miterlimit: 10;}#el_HybN92nI27{fill: none;stroke: #000000;stroke-miterlimit: 10;}#el_H1fN5h2U3m{fill: none;stroke: #000000;stroke-miterlimit: 10;opacity: 1;}#el_Bk4chnU3Q:hover #el_H1fN5h2U3m{-webkit-animation-name: el_H1fN5h2U3m_Animation;animation-name: el_H1fN5h2U3m_Animation;}#el_BkXVc23827{fill: none;stroke: #000000;stroke-miterlimit: 10;opacity: 1;}#el_Bk4chnU3Q:hover #el_BkXVc23827{-webkit-animation-name: el_BkXVc23827_Animation;animation-name: el_BkXVc23827_Animation;}#el_r1EVq3hI27{fill: none;stroke: #000000;stroke-miterlimit: 10;opacity: 1;}#el_Bk4chnU3Q:hover #el_r1EVq3hI27{-webkit-animation-name: el_r1EVq3hI27_Animation;animation-name: el_r1EVq3hI27_Animation;}#el_HJBE53n837{fill: none;stroke: #000000;stroke-miterlimit: 10;}#el_rkLNc3hUnm{fill: none;stroke: #000000;stroke-miterlimit: 10;}#el_r1EVq3hI27_ByOon2L2Q{-webkit-transform: translate(140.79998779296875px, 54.599998474121094px) translate(-140.79998779296875px, -54.599998474121094px) translate(0px, 0px);transform: translate(140.79998779296875px, 54.599998474121094px) translate(-140.79998779296875px, -54.599998474121094px) translate(0px, 0px);}#el_BkXVc23827_SyRi3283Q{-webkit-transform: translate(106.80000305175781px, 54.599998474121094px) translate(-106.80000305175781px, -54.599998474121094px) translate(0px, 0px);transform: translate(106.80000305175781px, 54.599998474121094px) translate(-106.80000305175781px, -54.599998474121094px) translate(0px, 0px);}</style>

<path d="M169.2,103.9H65.6c-6.6,0-12-5.4-12-12V42c0-6.6,5.4-12,12-12h103.6c6.6,0,12,5.4,12,12v49.9&#10;&#9;C181.2,98.5,175.8,103.9,169.2,103.9z" id="el_SklE93nUn7"/>
<path d="M163.4,97.4h-92c-6.6,0-12-5.4-12-12V47.1c0-6.6,5.4-12,12-12h92c6.6,0,12,5.4,12,12v38.3&#10;&#9;C175.4,92,170,97.4,163.4,97.4z" id="el_HybN92nI27"/>
<circle cx="82.2" cy="65.2" r="10.6" id="el_H1fN5h2U3m"/>
<circle cx="117.4" cy="65.2" r="10.6" id="el_BkXVc23827"/>
<circle cx="151.4" cy="65.2" r="10.6" id="el_r1EVq3hI27"/>
<line x1="98.6" y1="104" x2="115.5" y2="145.6" id="el_HJBE53n837"/>
<line x1="115.3" y1="145.8" x2="134" y2="103.9" id="el_rkLNc3hUnm"/>
</svg>