<?xml version="1.0" encoding="utf-8"?>
<!-- Generator: Adobe Illustrator 19.2.0, SVG Export Plug-In . SVG Version: 6.00 Build 0)  -->
<svg version="1.1" id="Layer_1" xmlns="http://www.w3.org/2000/svg" xmlns:xlink="http://www.w3.org/1999/xlink" x="0px" y="0px"
	 viewBox="0 0 230.9 217.8" style="enable-background:new 0 0 230.9 217.8;" xml:space="preserve">
<style type="text/css">
	.st0{fill:none;stroke:#000000;stroke-miterlimit:10;}
</style>
<path class="st0" d="M123.4,168.1c0,0,0,0-3.2,0c-0.9,0-1.7,0-2.6,0c-0.1,0-0.3,0-0.7,0c0,0,0,0,0,0c-0.9,0-2.6-0.4-3.9-1.6
	c-1-1-1.6-2.4-1.6-3.9v-104c0-3.1,2.5-5.6,5.6-5.6h6.5c3.1,0,5.6,2.5,5.6,5.6v104C129,165.6,126.5,168.1,123.4,168.1z"/>
<circle class="st0" cx="120.2" cy="34.4" r="15.4"/>
<path class="st0" d="M131.3,182.1"/>
<path class="st0" d="M126,174.4"/>
<path class="st0" d="M120.2,171.7"/>
<path class="st0" d="M120.5,171.4"/>
<path class="st0" d="M111.5,196.1c17.5,0,22-2.1,22.5-4.2c0.5-2.5-4.2-6.8-9-7.3c-5.5-0.6-9.2,4-11.8,2.2c-1.4-1-1.8-3.4-1.3-5.1
	c1-3.9,6.4-3.7,8.2-7.9c0.9-2.1,0.5-4.3,0.2-5.6"/>
</svg>
