<svg version="1.1" id="el_djSLf_dSn" xmlns="http://www.w3.org/2000/svg" xmlns:xlink="http://www.w3.org/1999/xlink" x="0px" y="0px" viewBox="0 0 600 600" style="enable-background:new 0 0 873.2 904.1;" xml:space="preserve"><style type="text/css">@-webkit-keyframes el_thHYPGzMJC_CMnncrrqz_Animation {
    0% {
        -webkit-transform: translate(0px, 0px);
                transform: translate(0px, 0px)
    }
    33.33% {
        -webkit-transform: translate(200px, 0px);
                transform: translate(200px, 0px)
    }
    64.44% {
        -webkit-transform: translate(0px, 0px);
                transform: translate(0px, 0px)
    }
    100% {
        -webkit-transform: translate(0px, 0px);
                transform: translate(0px, 0px)
    }
}
@keyframes el_thHYPGzMJC_CMnncrrqz_Animation {
    0% {
        -webkit-transform: translate(0px, 0px);
                transform: translate(0px, 0px)
    }
    33.33% {
        -webkit-transform: translate(200px, 0px);
                transform: translate(200px, 0px)
    }
    64.44% {
        -webkit-transform: translate(0px, 0px);
                transform: translate(0px, 0px)
    }
    100% {
        -webkit-transform: translate(0px, 0px);
                transform: translate(0px, 0px)
    }
}
#el_djSLf_dSn * {
    -webkit-animation-duration: 3s;
            animation-duration: 3s;
    -webkit-animation-iteration-count: infinite;
            animation-iteration-count: infinite;
    -webkit-animation-play-state: running;
            animation-play-state: running;
    -webkit-animation-timing-function: cubic-bezier(0, 0, 1, 1);
            animation-timing-function: cubic-bezier(0, 0, 1, 1)
}
#el_thHYPGzMJC_CMnncrrqz {
    -webkit-transform-origin: 50% 50%;
            transform-origin: 50% 50%;
    transform-box: fill-box
}
#el_djSLf_dSn:hover #el_thHYPGzMJC_CMnncrrqz {
    -webkit-animation-name: el_thHYPGzMJC_CMnncrrqz_Animation;
            animation-name: el_thHYPGzMJC_CMnncrrqz_Animation
}</style><style/>
<g id="el_thHYPGzMJC_CMnncrrqz" data-animator-group="true" data-animator-type="0"><g id="el_thHYPGzMJC">
	<path d="M274.5,456.3c-56.4,0-102.3-62.1-102.3-138.4s45.9-138.4,102.3-138.4c56.4,0,102.3,62.1,102.3,138.4&#10;&#9;&#9;S330.9,456.3,274.5,456.3z M274.5,180.4c-55.9,0-101.3,61.7-101.3,137.4c0,75.8,45.4,137.4,101.3,137.4&#10;&#9;&#9;c55.9,0,101.3-61.7,101.3-137.4C375.8,242,330.3,180.4,274.5,180.4z" id="el_rSGliRpK1_"/>
	<rect x="174.2" y="294" width="200.7" height="1" id="el_LZ0GGt2_s-"/>
	<path d="M274.5,260.5c-6.2,0-11.2-7-11.2-15.7s5-15.7,11.2-15.7s11.2,7,11.2,15.7S280.7,260.5,274.5,260.5z M274.5,230.1&#10;&#9;&#9;c-5.6,0-10.2,6.6-10.2,14.7s4.6,14.7,10.2,14.7c5.6,0,10.2-6.6,10.2-14.7S280.1,230.1,274.5,230.1z" id="el_PlaRMDGS-6"/>
	<rect x="274" y="179.9" width="1" height="49.8" id="el_8KC5Jd7EV8"/>
	<rect x="274" y="260" width="1" height="34.4" id="el_Xvq6VGmd0f"/>
	<path d="M275,180.6c-12.6-20.6-16-36.4-10.1-47.1c4.3-7.7,12.2-10.4,19.9-13.1c8.1-2.8,15.7-5.4,19.4-13.3&#10;&#9;&#9;c3.6-7.6,2.9-18.9-1.6-28.2c-3.5-7.2-8.8-12-14.9-13.4c-15-3.4-30,11.8-34,27.5l-1-0.2c2.4-9.3,7.6-17.3,14.6-22.7&#10;&#9;&#9;c6.6-5,14.1-7,20.5-5.5c6.4,1.4,11.9,6.4,15.6,13.9c4.7,9.5,5.3,21.2,1.6,29c-3.9,8.3-12.1,11.1-20,13.8&#10;&#9;&#9;c-7.5,2.6-15.3,5.3-19.4,12.6c-5.7,10.3-2.4,25.8,10.1,46.1L275,180.6z" id="el_h_Olcr-EoE"/>
</g></g>
<script>(function(){var a=document.querySelector('#el_djSLf_dSn'),b=a.querySelectorAll('style'),c=function(d){b.forEach(function(f){var g=f.textContent;g&amp;&amp;(f.textContent=g.replace(/transform-box:[^;\r\n]*/gi,'transform-box: '+d))})};c('initial'),window.requestAnimationFrame(function(){return c('fill-box')})})();</script></svg>