<?xml version="1.0" encoding="utf-8"?>
<!-- Generator: Adobe Illustrator 19.2.0, SVG Export Plug-In . SVG Version: 6.00 Build 0)  -->
<svg version="1.1" id="Layer_1" xmlns="http://www.w3.org/2000/svg" xmlns:xlink="http://www.w3.org/1999/xlink" x="0px" y="0px"
	 viewBox="0 0 230.9 201.8" style="enable-background:new 0 0 230.9 201.8;" xml:space="preserve">
<style type="text/css">
	.st0{fill:none;stroke:#000000;stroke-miterlimit:10;}
</style>
<path class="st0" d="M199.7,140.3H31c-6.6,0-12-5.4-12-12V73.6c0-6.6,5.4-12,12-12h168.7c6.6,0,12,5.4,12,12v54.7
	C211.7,134.9,206.3,140.3,199.7,140.3z"/>
<rect x="63" y="120.2" class="st0" width="107.5" height="8.2"/>
<rect x="30.5" y="72.2" class="st0" width="8.5" height="8.5"/>
<rect x="44.5" y="72.2" class="st0" width="8.5" height="8.5"/>
<rect x="58.5" y="72.2" class="st0" width="8.5" height="8.5"/>
<rect x="71.5" y="72.2" class="st0" width="8.5" height="8.5"/>
<rect x="84.5" y="72.2" class="st0" width="8.5" height="8.5"/>
<rect x="97.5" y="72.2" class="st0" width="8.5" height="8.5"/>
<rect x="111.5" y="72.2" class="st0" width="8.5" height="8.5"/>
<rect x="138.5" y="72.2" class="st0" width="8.5" height="8.5"/>
<rect x="125.5" y="72.2" class="st0" width="8.5" height="8.5"/>
<rect x="151.5" y="72.2" class="st0" width="8.5" height="8.5"/>
<rect x="164.5" y="72.2" class="st0" width="8.5" height="8.5"/>
<rect x="178.5" y="72.2" class="st0" width="8.5" height="8.5"/>
<rect x="192.5" y="72.2" class="st0" width="8.5" height="8.5"/>
<rect x="30.5" y="88.2" class="st0" width="8.5" height="8.5"/>
<rect x="44.5" y="88.2" class="st0" width="8.5" height="8.5"/>
<rect x="58.5" y="88.2" class="st0" width="8.5" height="8.5"/>
<rect x="71.5" y="88.2" class="st0" width="8.5" height="8.5"/>
<rect x="84.5" y="88.2" class="st0" width="8.5" height="8.5"/>
<rect x="97.5" y="88.2" class="st0" width="8.5" height="8.5"/>
<rect x="111.5" y="88.2" class="st0" width="8.5" height="8.5"/>
<rect x="138.5" y="88.2" class="st0" width="8.5" height="8.5"/>
<rect x="125.5" y="88.2" class="st0" width="8.5" height="8.5"/>
<rect x="151.5" y="88.2" class="st0" width="8.5" height="8.5"/>
<rect x="164.5" y="88.2" class="st0" width="8.5" height="8.5"/>
<rect x="178.5" y="88.2" class="st0" width="8.5" height="8.5"/>
<rect x="192.5" y="88.2" class="st0" width="8.5" height="8.5"/>
<rect x="30.5" y="104.2" class="st0" width="8.5" height="8.5"/>
<rect x="44.5" y="104.2" class="st0" width="8.5" height="8.5"/>
<rect x="58.5" y="104.2" class="st0" width="8.5" height="8.5"/>
<rect x="71.5" y="104.2" class="st0" width="8.5" height="8.5"/>
<rect x="84.5" y="104.2" class="st0" width="8.5" height="8.5"/>
<rect x="97.5" y="104.2" class="st0" width="8.5" height="8.5"/>
<rect x="111.5" y="104.2" class="st0" width="8.5" height="8.5"/>
<rect x="138.5" y="104.2" class="st0" width="8.5" height="8.5"/>
<rect x="125.5" y="104.2" class="st0" width="8.5" height="8.5"/>
<rect x="151.5" y="104.2" class="st0" width="8.5" height="8.5"/>
<rect x="164.5" y="104.2" class="st0" width="8.5" height="8.5"/>
<rect x="178.5" y="104.2" class="st0" width="8.5" height="8.5"/>
<rect x="192.5" y="104.2" class="st0" width="8.5" height="8.5"/>
</svg>
